<svg id="Layer_1" data-name="Layer 1" xmlns="http://www.w3.org/2000/svg" viewBox="0 0 1200 800"><defs><style>.cls-1{fill:none;stroke:#1d1655;stroke-linecap:round;stroke-miterlimit:10;stroke-width:6px;}.cls-2{fill:#1d1655;}</style></defs><line class="cls-1" x1="118.13" y1="374.09" x2="527.05" y2="137.8"/><polygon class="cls-2" points="522.12 168.99 516.37 167.23 525.06 138.95 496.22 132.35 497.56 126.5 532.69 134.54 522.12 168.99"/><line class="cls-1" x1="118.15" y1="418.11" x2="527.25" y2="654.1"/><polygon class="cls-2" points="497.77 665.42 496.42 659.57 525.25 652.95 516.54 624.67 522.29 622.91 532.88 657.35 497.77 665.42"/><line class="cls-1" x1="667.31" y1="657.3" x2="1076.24" y2="421"/><polygon class="cls-2" points="1071.3 452.19 1065.56 450.44 1074.25 422.16 1045.4 415.56 1046.75 409.7 1081.87 417.75 1071.3 452.19"/><line class="cls-1" x1="667.12" y1="134.49" x2="1076.22" y2="370.48"/><polygon class="cls-2" points="1046.73 381.8 1045.39 375.95 1074.22 369.33 1065.51 341.06 1071.26 339.29 1081.85 373.74 1046.73 381.8"/><path class="cls-2" d="M339.14,363.77h8.35c7,0,11.9,4.83,11.91,11.13V375c0,6.31-4.86,11.21-11.9,11.21h-8.35Zm3.93,3.58v15.24h4.42c4.7,0,7.77-3.17,7.77-7.55V375a7.35,7.35,0,0,0-7.78-7.61Z"/><path class="cls-2" d="M366,363.76h3.93v22.4H366Z"/><path class="cls-2" d="M375.58,363.76h4.36L386.69,381l6.72-17.22h4.25l-9.27,22.56h-3.52Z"/><path class="cls-2" d="M403.1,363.75h16.61v3.52H407v5.82h11.24v3.56H407v6h12.83v3.52H403.11Z"/><path class="cls-2" d="M426.14,363.74h10a9,9,0,0,1,6.46,2.23,6.75,6.75,0,0,1,1.86,4.83v.07c0,3.68-2.21,5.89-5.31,6.78l6.05,8.48h-4.67l-5.51-7.8h-4.92v7.81h-3.94Zm9.7,11.1c2.82,0,4.61-1.47,4.61-3.75V371c0-2.4-1.73-3.71-4.64-3.71h-5.73v7.52Z"/><path class="cls-2" d="M449.89,375v-.06a11.42,11.42,0,0,1,11.55-11.59,12.13,12.13,0,0,1,8.61,3l-2.5,3a8.87,8.87,0,0,0-6.27-2.37c-4.13,0-7.26,3.59-7.26,7.87v.07c0,4.61,3,8,7.62,8a9.19,9.19,0,0,0,5.41-1.69v-4.16h-5.72v-3.46h9.53V383a14.24,14.24,0,0,1-9.34,3.49C454.5,386.51,449.9,381.52,449.89,375Z"/><path class="cls-2" d="M477.57,363.72h16.6v3.52H481.5v5.82h11.23v3.55H481.51v6h12.83v3.52H477.58Z"/><path class="cls-2" d="M343.44,420.8c0,1-.6,2.1-1.62,2.1a1.3,1.3,0,0,1-1.38-1.32,2.37,2.37,0,0,1,1-1.83,2.43,2.43,0,0,0-1.83-.71c-3.27,0-5.22,4.68-5.22,7.47,0,2.61,1.29,3.84,2.91,3.84,1.35,0,2.73-.88,4-3.16l1,.57c-1.26,2.37-2.88,4.08-5.43,4.09-2.94,0-4.86-2.22-4.86-5.37,0-4.26,3.63-8.64,7.68-8.64C341.79,417.83,343.44,419.06,343.44,420.8Z"/><path class="cls-2" d="M348.36,422.12c.63-2.31.33-2.76-.24-2.76-.84,0-1.65,1.5-2.58,3.39l-1-.45c1.23-2.79,2.46-4.41,4.1-4.41,1.21,0,1.9.87,1.9,2.46a12.46,12.46,0,0,1-.66,3.51l.24.09c1.83-3.84,3.3-6.12,5.1-6.12a1.65,1.65,0,0,1,1.71,1.74,2,2,0,0,1-1.65,2.13c-.81,0-1.35-.63-1.26-1.71-1.23.57-3.78,4.29-5.73,11.58h-2.43Z"/><path class="cls-2" d="M359.43,426.05a4.39,4.39,0,0,0-.06.87c0,2.43,1.17,3.51,2.82,3.51s3.12-1.11,4.44-3l.93.6c-1.44,2.19-3.21,3.85-6,3.85s-4.59-1.92-4.59-5c0-4.59,4.2-9,8.15-9,2.17,0,3.34,1.19,3.34,2.75C368.46,423.22,365.61,425.39,359.43,426.05Zm.21-1.11c5.1-.69,6.66-2.44,6.66-4.29a1.51,1.51,0,0,0-1.62-1.62C362.28,419,360.33,422.15,359.64,424.94Z"/><path class="cls-2" d="M380.46,426.7a9.93,9.93,0,0,0-.45,2.46c0,.39.12.9.72.9.81,0,1.5-1.26,2.28-3.33l1,.33c-1.26,3.75-2.55,4.77-3.93,4.77-1.14,0-2.07-.78-2.07-2.43a5.43,5.43,0,0,1,.06-.75l-.21-.09c-1.23,2.1-2.79,3.27-4.44,3.27-2.1,0-3.57-1.77-3.57-4.53a10.58,10.58,0,0,1,2.94-7.35,6.38,6.38,0,0,1,4.29-2.13,2.78,2.78,0,0,1,2.79,2.61l.65-2.43h2.29Zm-1.2-4.56c0-1.41-.57-3-2.07-3-2.73,0-4.95,4.77-4.95,7.95,0,1.95.78,3,2,3C376.89,430.09,379.26,424.93,379.26,422.14Z"/><path class="cls-2" d="M390.93,419.62,389,426.7a9.33,9.33,0,0,0-.39,2.13A1,1,0,0,0,389.7,430c1.23,0,2.19-1.56,3.09-3.51l1,.32c-1.59,4.23-3.51,5-4.8,5a2.49,2.49,0,0,1-2.79-2.61,14.46,14.46,0,0,1,.54-2.94l1.83-6.66h-2.73l.32-1.32H389l1-3.75,2.4-.3-1.11,4.05h4.12l-.36,1.32Z"/><path class="cls-2" d="M398.13,426a4.39,4.39,0,0,0-.06.87c0,2.43,1.17,3.51,2.82,3.51s3.12-1.11,4.44-3l.93.6c-1.44,2.19-3.21,3.84-6,3.84s-4.59-1.92-4.59-5c0-4.59,4.2-9,8.16-9,2.15,0,3.33,1.2,3.33,2.76C407.16,423.21,404.31,425.37,398.13,426Zm.21-1.11c5.1-.69,6.66-2.43,6.66-4.29a1.51,1.51,0,0,0-1.62-1.62C401,419,399,422.13,398.34,424.92Z"/><path class="cls-2" d="M425.4,420.77c0,1-.6,2.1-1.62,2.1a1.31,1.31,0,0,1-1.38-1.32,2.39,2.39,0,0,1,1-1.83,2.4,2.4,0,0,0-1.82-.72c-3.27,0-5.22,4.69-5.22,7.48,0,2.61,1.29,3.84,2.91,3.83,1.35,0,2.73-.87,4-3.15l1,.57c-1.26,2.37-2.88,4.08-5.43,4.08-2.94,0-4.86-2.21-4.86-5.36,0-4.26,3.63-8.64,7.68-8.65C423.75,417.8,425.4,419,425.4,420.77Z"/><path class="cls-2" d="M434.91,429.17c0-2.79,2.13-5.85,2.13-8.28,0-.66-.27-1.23-1.05-1.23-1.71,0-4.89,3.18-7.23,11.88h-2.43l5-19h-2.82l.42-1.62h5.1l-3.65,13,.18.09c2-4,4.25-6.24,6.29-6.24,1.47,0,2.5,1.2,2.5,3,0,2.55-2.25,6.39-2.25,8.49,0,.36.12.75.6.75.72,0,1.47-1.26,2.25-3.33l1,.33c-1.26,3.75-2.61,4.77-3.93,4.77S434.88,430.91,434.91,429.17Z"/><path class="cls-2" d="M454.77,423.34c0,4.5-3.33,8.46-7.2,8.46-3.18,0-5-2.33-5-5.54,0-4.5,3.32-8.47,7.19-8.47C452.93,417.79,454.77,420.13,454.77,423.34Zm-5-4.35c-3.07,0-4.86,4.93-4.86,8.22,0,2.34,1.11,3.36,2.61,3.36,3.06,0,4.86-4.92,4.86-8.22C452.39,420,451.29,419,449.79,419Z"/><path class="cls-2" d="M460.23,429.25c0,.39.18.78.69.78.75,0,1.47-1.14,2.31-3.33l1,.33c-1.26,3.69-2.61,4.77-4,4.77a2.23,2.23,0,0,1-2.25-2.58c0-2.82,2.61-6.66,2.61-9.06,0-.42-.12-.84-.57-.84-1,0-1.83,1.53-2.79,3.39l-1-.45c1.26-2.73,2.54-4.47,4.29-4.47,1.34,0,2.25,1,2.25,2.88C462.75,423.16,460.23,427.27,460.23,429.25Zm2.21-13.92a1.33,1.33,0,0,1-1.35-1.44,2,2,0,0,1,1.83-2.1,1.36,1.36,0,0,1,1.41,1.47A2,2,0,0,1,462.44,415.33Z"/><path class="cls-2" d="M477.48,420.75c0,1-.6,2.1-1.62,2.1a1.31,1.31,0,0,1-1.38-1.32,2.36,2.36,0,0,1,1-1.83,2.44,2.44,0,0,0-1.83-.72c-3.26,0-5.21,4.69-5.21,7.48,0,2.61,1.29,3.84,2.91,3.83,1.35,0,2.73-.87,4-3.15l1,.57c-1.26,2.37-2.88,4.08-5.43,4.08-2.94,0-4.86-2.21-4.86-5.36,0-4.26,3.62-8.64,7.67-8.64C475.82,417.78,477.47,419,477.48,420.75Z"/><path class="cls-2" d="M481.17,426a4.39,4.39,0,0,0-.06.87c0,2.43,1.17,3.51,2.82,3.51s3.12-1.11,4.44-3l.93.6c-1.44,2.19-3.21,3.84-6,3.84s-4.59-1.92-4.59-5c0-4.59,4.19-9,8.15-9,2.16,0,3.34,1.2,3.34,2.76C490.2,423.18,487.35,425.34,481.17,426Zm.21-1.11c5.1-.69,6.66-2.43,6.66-4.29a1.52,1.52,0,0,0-1.62-1.62C484,419,482.07,422.1,481.38,424.89Z"/><path class="cls-2" d="M496,431.79c-2.25,0-5-1.11-5-3.18a1.76,1.76,0,0,1,1.62-1.89,1.28,1.28,0,0,1,1.29,1.35,2.06,2.06,0,0,1-.75,1.56,4,4,0,0,0,2.82,1c1.74,0,2.91-.94,2.91-2.47,0-1.14-.78-1.67-2.85-2.6-1.5-.69-3.18-1.5-3.18-3.48,0-2.82,2.54-4.29,5-4.29s4.48,1.07,4.48,2.81a1.65,1.65,0,0,1-1.5,1.83,1.23,1.23,0,0,1-1.32-1.29,1.88,1.88,0,0,1,.74-1.47,3.74,3.74,0,0,0-2.39-.74c-1.68,0-2.83.9-2.82,2.34,0,1.11.84,1.74,2.73,2.57s3.3,1.62,3.3,3.57C501.12,430.25,498.69,431.78,496,431.79Z"/><path class="cls-2" d="M731.47,429.19c0-2.79,2.13-5.85,2.13-8.28,0-.66-.27-1.23-1.05-1.23-1.71,0-4.59,3.18-6.95,11.88h-2.4l1.31-4.89a29,29,0,0,0,1.26-5.49c0-.63-.12-1.5-1.14-1.5-1.71,0-4.56,3.19-6.92,11.89h-2.43l2.51-9.45c.63-2.31.33-2.76-.24-2.76-.84,0-1.65,1.5-2.58,3.39l-1-.45c1.23-2.79,2.46-4.41,4.11-4.41,1.2,0,1.89.87,1.89,2.46a12.46,12.46,0,0,1-.66,3.51l.21.09c1.92-4,4-6.13,6-6.13,1.5,0,2.37,1.08,2.37,2.76a10.61,10.61,0,0,1-.72,3.27l.21.09c1.92-4,4-6.12,6.06-6.12,1.47,0,2.49,1.2,2.49,3,0,2.55-2.25,6.39-2.25,8.49,0,.36.12.75.6.75.72,0,1.47-1.26,2.25-3.33l1,.33c-1.28,3.75-2.6,4.77-3.92,4.77S731.45,430.93,731.47,429.19Z"/><path class="cls-2" d="M749.71,426.69a9.93,9.93,0,0,0-.45,2.46c0,.39.12.9.72.9.81,0,1.5-1.26,2.28-3.33l1,.33c-1.25,3.75-2.54,4.77-3.92,4.77-1.14,0-2.07-.78-2.08-2.42a5.3,5.3,0,0,1,.06-.75l-.21-.1c-1.22,2.11-2.78,3.28-4.43,3.28-2.1,0-3.58-1.77-3.58-4.53a10.58,10.58,0,0,1,2.94-7.35,6.4,6.4,0,0,1,4.29-2.13,2.77,2.77,0,0,1,2.79,2.6l.66-2.43h2.28Zm-1.2-4.56c0-1.41-.57-3-2.07-3-2.73,0-5,4.77-5,7.95,0,1.95.78,3,2,3C746.14,430.09,748.51,424.92,748.51,422.13Z"/><path class="cls-2" d="M764.23,430.05c.72,0,1.47-1.26,2.22-3.33l1,.33c-1.23,3.75-2.55,4.77-3.86,4.77s-2.26-.9-2.23-2.79c0-.9.27-2.13.27-2.73,0-1.14-.48-1.56-2.61-1.56h-.69l-1.82,6.81H754.3l5-19h-2.82l.42-1.62H762l-3.42,12.78H759c1.53,0,2.34-.87,3.57-2.91,1.08-1.86,2-3,3.54-3a1.65,1.65,0,0,1,1.86,1.77,1.82,1.82,0,0,1-1.59,2c-1,0-1.56-1-1-2.13-.66.06-1.2.81-1.95,2.1a5.35,5.35,0,0,1-2.4,2.49c2.1.15,2.76,1.14,2.76,2.4,0,.93-.24,1.83-.24,2.61C763.57,429.66,763.75,430.05,764.23,430.05Z"/><path class="cls-2" d="M771.7,426a4.39,4.39,0,0,0-.06.87c0,2.43,1.18,3.51,2.82,3.5s3.12-1.11,4.44-3l.93.6c-1.44,2.19-3.21,3.84-6,3.84s-4.58-1.91-4.59-5c0-4.59,4.2-9,8.16-9,2.16,0,3.33,1.2,3.33,2.76C780.73,423.2,777.88,425.36,771.7,426Zm.21-1.11c5.1-.7,6.66-2.44,6.66-4.3A1.51,1.51,0,0,0,777,419C774.55,419,772.6,422.13,771.91,424.92Z"/><path class="cls-2" d="M799,420.77c0,1-.6,2.1-1.62,2.1a1.31,1.31,0,0,1-1.38-1.32,2.37,2.37,0,0,1,1-1.83,2.44,2.44,0,0,0-1.83-.72c-3.27,0-5.22,4.68-5.22,7.47,0,2.61,1.29,3.84,2.91,3.84,1.35,0,2.73-.87,4-3.15l1,.57c-1.26,2.37-2.88,4.08-5.42,4.08-2.94,0-4.87-2.22-4.87-5.37,0-4.26,3.63-8.64,7.68-8.64C797.32,417.8,799,419,799,420.77Z"/><path class="cls-2" d="M808.48,429.16c0-2.79,2.13-5.85,2.13-8.28,0-.66-.27-1.23-1.05-1.23-1.71,0-4.89,3.18-7.23,11.88H799.9l5-19h-2.82l.42-1.62h5.1l-3.66,13,.18.09c2-4,4.26-6.24,6.3-6.24,1.47,0,2.49,1.2,2.49,3,0,2.55-2.25,6.39-2.25,8.49,0,.36.12.75.6.75.72,0,1.47-1.26,2.25-3.33l1,.33c-1.26,3.75-2.61,4.77-3.93,4.77S808.45,430.9,808.48,429.16Z"/><path class="cls-2" d="M828.34,423.33c0,4.5-3.33,8.47-7.2,8.47-3.18,0-5-2.34-5-5.55,0-4.5,3.33-8.46,7.2-8.46C826.51,417.79,828.34,420.12,828.34,423.33Zm-5-4.34c-3.06,0-4.86,4.92-4.86,8.22,0,2.34,1.11,3.36,2.61,3.36,3.06,0,4.86-4.92,4.86-8.22C826,420,824.86,419,823.36,419Z"/><path class="cls-2" d="M833.8,429.24c0,.39.18.78.69.78.75,0,1.47-1.14,2.31-3.33l1,.33c-1.26,3.69-2.61,4.77-4,4.77a2.24,2.24,0,0,1-2.25-2.58c0-2.82,2.61-6.66,2.61-9.06,0-.42-.12-.84-.57-.84-1,0-1.83,1.53-2.79,3.39l-1-.45c1.26-2.73,2.55-4.47,4.29-4.47,1.35,0,2.25,1.05,2.25,2.88C836.32,423.15,833.8,427.26,833.8,429.24ZM836,415.32a1.33,1.33,0,0,1-1.35-1.44,2,2,0,0,1,1.83-2.1,1.36,1.36,0,0,1,1.41,1.47A2,2,0,0,1,836,415.32Z"/><path class="cls-2" d="M851.05,420.75c0,1-.6,2.1-1.62,2.1a1.31,1.31,0,0,1-1.38-1.32,2.37,2.37,0,0,1,1-1.83,2.44,2.44,0,0,0-1.83-.72c-3.27,0-5.22,4.68-5.22,7.47,0,2.61,1.29,3.84,2.91,3.84,1.35,0,2.73-.87,4-3.15l1,.57c-1.26,2.37-2.88,4.08-5.42,4.08-2.94,0-4.87-2.22-4.87-5.37,0-4.26,3.63-8.64,7.68-8.64C849.4,417.78,851.05,419,851.05,420.75Z"/><path class="cls-2" d="M854.74,426a4.39,4.39,0,0,0-.06.87c0,2.43,1.17,3.51,2.82,3.51s3.12-1.11,4.44-3l.93.6c-1.44,2.19-3.21,3.84-6,3.84s-4.59-1.91-4.59-5c0-4.59,4.2-9,8.16-9,2.16,0,3.33,1.2,3.33,2.76C863.77,423.17,860.92,425.33,854.74,426Zm.21-1.11c5.1-.69,6.66-2.43,6.66-4.29A1.51,1.51,0,0,0,860,419C857.59,419,855.64,422.09,855,424.88Z"/><path class="cls-2" d="M869.6,431.78c-2.25,0-5-1.11-5-3.18a1.76,1.76,0,0,1,1.62-1.89,1.28,1.28,0,0,1,1.29,1.35,2.06,2.06,0,0,1-.75,1.56,4,4,0,0,0,2.82,1c1.74,0,2.91-.93,2.91-2.46,0-1.14-.78-1.68-2.85-2.61-1.5-.69-3.18-1.5-3.18-3.48,0-2.82,2.55-4.29,5-4.29s4.47,1.08,4.47,2.82a1.65,1.65,0,0,1-1.5,1.83,1.24,1.24,0,0,1-1.32-1.29,1.92,1.92,0,0,1,.75-1.47,3.77,3.77,0,0,0-2.4-.75c-1.68,0-2.82.9-2.82,2.34,0,1.11.84,1.74,2.73,2.58s3.3,1.62,3.3,3.57C874.69,430.25,872.27,431.78,869.6,431.78Z"/><path class="cls-2" d="M695.21,375.05V375a11.32,11.32,0,0,1,11.51-11.59,11.72,11.72,0,0,1,8.8,3.48L713,369.8a9,9,0,0,0-6.31-2.75c-4.22,0-7.36,3.49-7.36,7.87V375c0,4.38,3.11,7.93,7.4,7.93,2.75,0,4.51-1.09,6.43-2.88l2.53,2.55a11.59,11.59,0,0,1-9.09,4A11.25,11.25,0,0,1,695.21,375.05Z"/><path class="cls-2" d="M719.81,375V375a11.72,11.72,0,0,1,23.43-.08V375a11.72,11.72,0,0,1-23.43.07Zm19.3,0V375a7.65,7.65,0,0,0-7.62-7.93,7.54,7.54,0,0,0-7.55,7.87V375a7.65,7.65,0,0,0,7.62,7.93A7.54,7.54,0,0,0,739.11,375Z"/><path class="cls-2" d="M749.6,363.77h3.65l12,15.48V363.76h3.87v22.4h-3.3l-12.35-15.93v15.93h-3.87Z"/><path class="cls-2" d="M774.56,363.76h4.35L785.67,381l6.71-17.22h4.26l-9.27,22.56h-3.52Z"/><path class="cls-2" d="M802.08,363.75h16.61v3.52H806v5.82h11.23v3.56H806v6h12.83v3.52H802.09Z"/><path class="cls-2" d="M825.12,363.74h10a9,9,0,0,1,6.47,2.24,6.84,6.84,0,0,1,1.86,4.83v.07c0,3.68-2.21,5.88-5.31,6.78l6,8.48H839.5l-5.51-7.8h-4.93v7.81h-3.93Zm9.7,11.1c2.81,0,4.61-1.48,4.61-3.75V371c0-2.4-1.73-3.71-4.65-3.71h-5.72v7.52Z"/><path class="cls-2" d="M848.87,375v-.06a11.41,11.41,0,0,1,11.55-11.59,12.08,12.08,0,0,1,8.6,3l-2.49,3a9,9,0,0,0-6.27-2.36c-4.13,0-7.26,3.59-7.26,7.87v.07c0,4.61,3,8,7.61,8a9.14,9.14,0,0,0,5.41-1.69v-4.16h-5.73v-3.46h9.54V383a14.26,14.26,0,0,1-9.34,3.49C853.48,386.51,848.87,381.52,848.87,375Z"/><path class="cls-2" d="M876.54,363.72h16.61v3.52H880.48v5.82h11.23v3.55H880.48v6h12.83v3.52H876.55Z"/><path class="cls-2" d="M603.12,708.91h-6V693.64h6Zm0-30.54h-6V663.11h6Zm0-30.54h-6V632.57h6Zm0-30.53h-6V602h6Zm0-30.54h-6V571.5h6Zm0-30.53h-6V541h6Zm0-30.54h-6V510.43h6Zm0-30.53h-6V479.89h6Zm0-30.54h-6V449.36h6Zm0-30.53h-6V418.82h6Zm0-30.54h-6V388.29h6ZM603,373h-6V357.75h6Zm0-30.54h-6V327.22h6ZM603,312h-6V296.68h6Zm0-30.54h-6V266.14h6Zm0-30.54h-6V235.61h6Zm0-30.53h-6V205.07h6Zm0-30.54h-6V174.54h6Zm0-30.53h-6V144h6Zm0-30.54h-6V113.47h6Zm0-30.53h-6V82.93h6Z"/></svg>